/vscmnt/brussel_pixiu_data/_data_brussel/112/vsc11236/PredSimResults/SUBJ10opt3D/trackIG/worker_07.mot
version=1
nRows=8
nColumns=50
inDegrees=yes
endheader
                time	         pelvis_tilt	         pelvis_list	     pelvis_rotation	           pelvis_tx	           pelvis_ty	           pelvis_tz	       hip_flexion_r	     hip_adduction_r	      hip_rotation_r	        knee_angle_r	       ankle_angle_r	         mtp_angle_r	       hip_flexion_l	     hip_adduction_l	      hip_rotation_l	        knee_angle_l	       ankle_angle_l	         mtp_angle_l	    lumbar_extension	      lumbar_bending	     lumbar_rotation	 ercspn_r/activation	 intobl_r/activation	 extobl_r/activation	    abd_r/activation	    add_r/activation	hamstrings_r/activation	bifemsh_r/activation	glut_max_r/activation	iliopsoas_r/activation	rect_fem_r/activation	  vasti_r/activation	gastroc_r/activation	 soleus_r/activation	tib_ant_r/activation	 ercspn_l/activation	 intobl_l/activation	 extobl_l/activation	    abd_l/activation	    add_l/activation	hamstrings_l/activation	bifemsh_l/activation	glut_max_l/activation	iliopsoas_l/activation	rect_fem_l/activation	  vasti_l/activation	gastroc_l/activation	 soleus_l/activation	tib_ant_l/activation	
          1.11733362	         -4.20374680	         -0.98885250	          7.36703905	          1.34080034	          0.82269258	         -0.01238844	         31.11534454	         -1.69343283	         -5.99790593	         -6.98599088	          3.31266754	          0.26510887	        -16.43783898	         -0.95749406	         -0.10597148	         -5.24758849	          8.15411866	         26.17293460	         -6.63050998	         -0.75897977	         -6.24523654	          0.12109575	          0.18386900	          0.00999999	          0.00999999	          0.12162803	          0.12121825	          0.25264430	          0.02704314	          0.10457230	          0.00999999	          0.00999999	          0.00999999	          0.00999999	          0.28135696	          0.06620825	          0.00999999	          0.00999999	          0.05415571	          0.00999999	          0.01407301	          0.22740018	          0.01325332	          0.37255899	          0.00999999	          0.00999999	          0.31153790	          0.24936514	          0.02495005	
          1.12850695	         -4.24346247	         -0.94947742	          7.47264750	          1.35631561	          0.82131189	         -0.01224305	         31.02262293	         -1.58213483	         -5.76307819	         -8.52837137	          3.04980415	          0.26219941	        -16.54717231	         -1.05944994	         -0.40494994	         -6.89571051	          7.46660572	         27.84279343	         -6.44513815	         -0.33323948	         -6.54591448	          0.10208521	          0.15500383	          0.00999999	          0.00999999	          0.16564139	          0.10415134	          0.21373341	          0.06350509	          0.08815573	          0.00999999	          0.00999999	          0.01669159	          0.01186221	          0.30507399	          0.10459445	          0.00999999	          0.00999999	          0.04565393	          0.00999999	          0.01194802	          0.19170116	          0.01186221	          0.31407182	          0.00999999	          0.00999999	          0.27802130	          0.23976549	          0.02103320	
          1.13968029	         -4.27317737	         -0.92269012	          7.53715688	          1.37214099	          0.82012847	         -0.01201838	         30.75987909	         -1.48080684	         -5.46721761	         -9.94463822	          2.65535653	          0.25367193	        -16.54840090	         -1.18172012	         -0.73228381	         -8.77206760	          6.64431316	         29.46178128	         -6.23724812	          0.11495687	         -6.82252581	          0.09554378	          0.13067014	          0.00999999	          0.03530790	          0.13963773	          0.09071861	          0.18017990	          0.09739976	          0.07431637	          0.00999999	          0.00999999	          0.01407122	          0.00999999	          0.38883703	          0.11629575	          0.00999999	          0.00999999	          0.03848682	          0.00999999	          0.01007233	          0.16160644	          0.00999999	          0.26476642	          0.00999999	          0.00999999	          0.23437538	          0.22458620	          0.01773125	
          1.15085362	         -4.29430778	         -0.89433797	          7.55481839	          1.38807274	          0.81926618	         -0.01167318	         30.41785594	         -1.37611465	         -5.25022694	        -11.20537161	          2.13783689	          0.24115937	        -16.37404612	         -1.31013031	         -1.09097901	        -10.96426959	          5.68335618	         30.94892786	         -6.03137729	          0.56101461	         -7.06783012	          0.11144733	          0.11015654	          0.00999999	          0.08589760	          0.18062502	          0.07647691	          0.15189388	          0.11493862	          0.06264962	          0.00999999	          0.00999999	          0.01186221	          0.00999999	          0.43954461	          0.14549143	          0.00999999	          0.00999999	          0.03244487	          0.00999999	          0.01082993	          0.13623622	          0.00999999	          0.22320136	          0.00999999	          0.00999999	          0.19758134	          0.20761590	          0.01494766	
          1.16202696	         -4.30598978	         -0.86343203	          7.52963750	          1.40396547	          0.81882629	         -0.01121899	         30.08336000	         -1.26941441	         -5.11078571	        -12.50051091	          1.69930369	          0.22668292	        -15.97568646	         -1.44614397	         -1.48536540	        -13.53116856	          4.59087300	         32.17267421	         -5.83976680	          1.00228449	         -7.27925522	          0.11524141	          0.09286332	          0.00999999	          0.12171771	          0.22775182	          0.06721565	          0.12804841	          0.12221806	          0.05281440	          0.00999999	          0.01213890	          0.00999999	          0.00999999	          0.45881089	          0.17526983	          0.00999999	          0.00999999	          0.02735142	          0.01787023	          0.01988402	          0.11484881	          0.00999999	          0.18816149	          0.00999999	          0.00999999	          0.16656350	          0.18449801	          0.01260106	
          1.17320030	         -4.30847162	         -0.83323154	          7.46758122	          1.41972019	          0.81888019	         -0.01066985	         29.79013988	         -1.16013765	         -5.02613779	        -13.89443184	          1.44371975	          0.21165191	        -15.31473907	         -1.59751257	         -1.92346952	        -16.51492929	          3.38622097	         32.95505741	         -5.66679637	          1.43949954	         -7.45864685	          0.11352528	          0.07828493	          0.00999999	          0.14283818	          0.25556864	          0.06400227	          0.10794639	          0.12171534	          0.04452319	          0.00999999	          0.04727284	          0.00999999	          0.00999999	          0.46502057	          0.19602271	          0.00999999	          0.00999999	          0.02305759	          0.08666203	          0.02107191	          0.09681897	          0.00999999	          0.15862246	          0.00999999	          0.00999999	          0.14041509	          0.15553409	          0.01062285	
          1.18437363	         -4.30369752	         -0.79896954	          7.36937739	          1.43526459	          0.81950899	         -0.01004978	         29.47866004	         -1.04714787	         -4.97253676	        -15.27130672	          1.40710819	          0.19603315	        -14.35500138	         -1.76374501	         -2.42898377	        -19.95410337	          2.08396651	         33.08826796	         -5.51547260	          1.86639089	         -7.60473048	          0.10836246	          0.06599516	          0.00999999	          0.15300177	          0.27178290	          0.06365772	          0.09100014	          0.11444625	          0.03753360	          0.00999999	          0.07724624	          0.00999999	          0.00999999	          0.44660491	          0.20453459	          0.00999999	          0.00999999	          0.01943783	          0.15150030	          0.02237391	          0.08161958	          0.00999999	          0.13372069	          0.00999999	          0.00999999	          0.11837165	          0.13111716	          0.00999999	
          1.19554697	         -4.29387884	         -0.75591160	          7.23498596	          1.45055359	          0.82073341	         -0.00938384	         29.08128338	         -0.92721294	         -4.92105324	        -16.50928062	          1.62009037	          0.18747153	        -13.07946677	         -1.94990343	         -3.00333407	        -23.82922126	          0.57850737	         32.55459715	         -5.38763240	          2.27828402	         -7.71544086	          0.09971249	          0.05563473	          0.00999999	          0.15561416	          0.27461683	          0.06511431	          0.07671424	          0.10456629	          0.03164129	          0.00999999	          0.09965584	          0.00999999	          0.00999999	          0.40709589	          0.20412038	          0.00999999	          0.00999999	          0.01638633	          0.21356635	          0.02720254	          0.06880631	          0.00999999	          0.11272819	          0.00999999	          0.00999999	          0.09978876	          0.11053338	          0.00999999	
